<svg width="898" height="692" viewBox="0 0 898 692" fill="none" xmlns="http://www.w3.org/2000/svg">
<mask id="mask0_578_1103" style="mask-type:alpha" maskUnits="userSpaceOnUse" x="0" y="0" width="898" height="692">
<path fill-rule="evenodd" clip-rule="evenodd" d="M0.5 188V411.5L228 691.5H897.5L709.5 0L0.5 188ZM280.385 237.389C282.12 234.306 297.536 227.754 309.098 224.863C338.197 217.733 369.029 225.056 394.466 245.097C405.065 253.576 407.377 259.743 401.404 264.753C398.898 266.873 394.273 265.909 372.112 258.201C339.546 247.024 321.624 244.134 301.39 246.832C293.104 247.988 285.396 248.373 283.854 247.795C280.771 246.639 278.458 240.28 280.385 237.389Z" fill="#202020"/>
</mask>
<g mask="url(#mask0_578_1103)">
<path d="M576.186 20.7897C551.713 26.1854 528.203 35.2426 507.969 47.3829C495.443 54.7057 494.287 55.0911 480.027 54.7057C460.949 54.1276 418.169 57.5962 394.852 61.4503C335.884 71.2782 284.24 92.0902 244.157 122.152C218.335 141.422 188.851 175.916 175.555 202.124C171.701 209.832 170.93 210.218 155.321 214.072C108.879 225.827 62.8228 242.207 42.5889 254.54C26.209 264.368 10.6 280.169 4.04805 293.466C-0.769555 303.487 -1.15496 305.606 -0.962259 330.08C-0.962259 352.819 -0.191443 358.214 4.43345 373.438C18.1154 418.338 47.0211 459.962 104.061 517.003C172.086 584.642 272.87 671.359 296.573 682.535L307.171 687.546L546.124 688.124C677.549 688.316 787.968 688.124 791.437 687.546C799.145 686.197 812.634 674.442 816.295 665.963C821.306 653.822 819.572 642.453 808.202 613.355C802.421 598.324 797.603 585.22 797.603 584.256C797.603 583.293 803.77 582.522 811.093 582.522C838.842 582.522 855.992 567.876 855.992 543.981C856.185 534.346 852.909 526.06 820.15 452.832L784.114 372.089L790.28 347.808C796.254 324.491 796.64 321.601 796.447 289.612C796.447 258.779 795.869 254.347 791.244 238.545C788.353 228.91 782.187 213.301 777.562 203.859C770.239 189.02 768.89 184.01 767.734 170.135C761.568 94.0173 717.053 37.7477 650.377 21.7533C631.685 17.1284 595.071 16.7429 576.186 20.7897ZM644.403 59.7159C679.861 68.5803 709.345 96.7152 721.292 133.136C727.459 152.407 730.157 167.438 730.157 184.781C730.157 197.885 730.735 199.426 738.636 212.338C751.74 233.728 757.521 253.383 758.677 281.518C759.833 309.653 757.328 327.575 748.656 353.59L742.297 372.475L780.453 457.65L818.608 543.018L779.296 543.596L740.177 543.981L760.989 596.975C772.359 626.073 781.223 650.354 780.645 650.932C780.067 651.51 677.549 651.895 552.869 651.895C359.202 651.895 324.708 651.51 316.614 649.005C306.208 645.922 282.12 627.422 233.366 584.642C218.142 571.345 202.919 558.049 199.643 555.351L193.862 550.34L207.158 548.799C236.256 545.908 265.933 537.622 293.682 524.711C312.374 516.039 318.926 511.029 317.192 506.789C315.458 501.972 311.218 502.55 273.641 512.378C251.865 518.159 227.777 522.784 206.002 525.674L172.279 530.106L151.081 509.68C105.603 465.936 74.9631 430.479 59.5468 403.885C50.6824 388.662 41.2399 366.886 39.5056 357.058C38.3494 350.506 38.3494 350.506 43.167 359.371C50.8751 373.824 65.3279 378.448 78.0464 370.74C83.6348 367.272 103.869 336.246 106.759 326.611C108.686 320.252 103.098 306.763 96.546 302.138C91.9211 298.669 88.6451 298.284 69.3747 298.669L47.4065 299.247L51.6459 294.622C62.8228 282.867 108.686 265.331 166.69 250.878L199.257 242.785L206.002 228.139C216.215 205.978 228.934 188.25 247.819 169.943C267.282 151.058 280.771 141.423 305.244 129.282C352.071 105.772 401.982 94.9808 468.657 93.8246L506.813 93.2465L516.833 86.6945C558.843 58.9451 603.55 49.5026 644.403 59.7159Z" fill="#202020" fill-opacity="0.01"/>
<path d="M644.403 59.7159C679.861 68.5803 709.345 96.7152 721.292 133.136C727.459 152.407 730.157 167.438 730.157 184.781C730.157 197.885 730.735 199.426 738.636 212.338C751.74 233.728 757.521 253.383 758.677 281.518C759.833 309.653 757.328 327.575 748.656 353.59L742.297 372.475L780.453 457.65L818.608 543.018L779.296 543.596L740.177 543.981L760.989 596.975C772.359 626.073 781.223 650.354 780.645 650.932C780.067 651.51 677.549 651.895 552.869 651.895C359.202 651.895 324.708 651.51 316.614 649.005C306.208 645.922 282.12 627.422 233.366 584.642C218.142 571.345 202.919 558.049 199.643 555.351L193.862 550.34L207.158 548.799C236.256 545.908 265.933 537.622 293.682 524.711C312.374 516.039 318.926 511.029 317.192 506.789C315.458 501.972 311.218 502.55 273.641 512.378C251.865 518.159 227.777 522.784 206.002 525.674L172.279 530.106L151.081 509.68C105.603 465.936 74.9631 430.479 59.5468 403.885C50.6824 388.662 41.2399 366.886 39.5056 357.058C38.3494 350.506 38.3494 350.506 43.167 359.371C50.8751 373.824 65.3279 378.448 78.0464 370.74C83.6348 367.272 103.869 336.246 106.759 326.611C108.686 320.252 103.098 306.763 96.546 302.138C91.9211 298.669 88.6451 298.284 69.3747 298.669L47.4065 299.247L51.6459 294.622C62.8228 282.867 108.686 265.331 166.69 250.878L199.257 242.785L206.002 228.139C216.215 205.978 228.934 188.25 247.819 169.943C267.282 151.058 280.771 141.423 305.244 129.282C352.071 105.772 401.982 94.9808 468.657 93.8246L506.813 93.2465L516.833 86.6945C558.843 58.9451 603.55 49.5026 644.403 59.7159Z" fill="#FEFEFE"/>
</g>
</svg>
